<?xml version="1.0" encoding="UTF-8"?>
<svg version="1.1" viewBox="0 0 2048 1927" width="204" height="192" xmlns="http://www.w3.org/2000/svg">
<path transform="translate(0)" d="m0 0h2048v1927h-2048z" fill="#FEFEFD"/>
<path transform="translate(858,243)" d="m0 0 5 2 9 6 14 9 29 16 17 10 21 12 29 17 23 14 12 9 5 1 30-16 17-10 24-14 26-15 53-31 13-9 7 3 23 13 15 9 28 16 24 14 29 17 19 11 23 13 29 17 52 30 19 11 29 17 20 12 29 17 23 13 24 13 14 8 24 14 20 12 17 10 19 12 7 6 1 3v29l-1 156-10 6-20 11-23 13-25 14-39 23-9 7-1 2 23 12 44 26 16 9 22 13 18 11 5 5v179l-3 7-7 6-28 16-25 14-15 9-29 17-14 9-6 5h-2l3 3 28 15 18 10 22 12 14 8 29 17 11 7 3 3 1 3v181l-4 6-10 7-22 13-23 13-25 14-27 16-23 13-28 16-23 14-25 15-21 12-29 16-24 14-18 10-25 15-24 14-20 12-21 12-27 15-22 13-21 12-19 11-12 6-5-2-17-11-16-8-14-8-17-10-16-9-23-13-19-12-29-16-4-2h-6l-16 8-25 14-23 13-26 15-29 17-32 18-7 4-2 2h-6l-10-7-13-8-23-13-15-9-22-13-24-14-14-8-16-9-22-13-42-24-29-17-28-16-24-14-20-12-45-26-17-10-42-24-25-14-16-9-26-15-11-7-4-6v-28l1-113v-45l8-5 22-12 25-15 22-13 17-10 17-9 18-7-5-5-19-12-21-12-19-12-19-11-27-15-17-11-2-4v-174l-1-11 5-4 23-13 22-12 14-9 19-12 23-12 20-11 2-3-13-8-23-13-13-8-26-15-43-25-8-4-2-2v-187l5-5 21-13 25-14 24-14 26-15 21-12 15-9 26-15 25-14 17-10 29-17 41-24 18-10 29-16 26-15 15-9 26-15 18-11 20-12 19-11 18-10 20-12z" fill="#00B1E2"/>
<path transform="translate(1185,244)" d="m0 0 7 3 23 13 15 9 28 16 24 14 29 17 19 11 23 13 29 17 52 30 19 11 29 17 20 12 29 17 23 13 24 13 14 8 24 14 20 12 17 10 19 12 7 6 1 3v29l-1 156-10 6-20 11-23 13-25 14-39 23-9 7-1 2 23 12 44 26 16 9 22 13 18 11 5 5v179l-3 7-7 6-28 16-25 14-15 9-29 17-14 9-6 5h-2l3 3 28 15 18 10 22 12 14 8 29 17 11 7 3 3 1 3v181l-4 6-10 7-22 13-23 13-25 14-27 16-23 13-28 16-23 14-25 15-21 12-29 16-24 14-18 10-25 15-24 14-20 12-21 12-27 15-22 13-21 12-19 11-12 6-5-2-17-11-16-8-14-8-17-10-16-9-23-13-19-12-29-16-4-2v-2h-5l-1-18 1-20v-39l1-31v-14l2-67 8-5 25-14 18-10 21-12 20-12 24-13 11-7 1-3-3-3-17-10-24-13-17-10-35-20-15-9-17-11-2-4v-69l1-82 1-34 1-2 11-6 24-13 19-11 22-13 17-10 32-16 1-4-41-24-21-12-5-3-8-6-12-6-15-9-16-8-10-4-1-9-1-41 1-87 1-52 10-7 21-12 55-33 21-12 26-15 27-16 20-12 53-31 21-13 15-9 27-14 16-9 14-8-1-4-10-7-18-12-19-11-11-6-15-9-21-12-10-6-33-17-10-7-10-5-9 3-13 5-11 5-17 8-11 8-9 7-16 9-20 11-20 12-25 14-24 14-22 13-23 14-21 12h-2v2l-7 3-16 9-21 13-5 3h-2v2l-7 3-21 11-12 3-8-2-18-10-11-7-26-15-13-8-27-15-16-9-15-9-11-6-5-6-3-5 1-5 18-8 21-11 14-9 29-16 17-10 26-15 24-15 24-14 27-16 22-12 25-14 20-13 17-10 18-10 11-8 5-4 28-15 17-10 24-14 26-15 53-31z" fill="#023F4C"/>
<path transform="translate(858,243)" d="m0 0 5 2 9 6 14 9 29 16 17 10 21 12 29 17 23 14 16 12-7 6-13 8-22 12-20 13-17 10-22 12-23 13-20 12-27 16-21 13-45 26-27 15-19 12-22 11-10 4 1 5 6 9 18 10 10 6 16 9 27 15 25 15 19 11 11 7 13 7 6 1 12-3 23-12 5-1v-2l17-10 18-11 12-7h4v-2l25-14 21-13 19-11 15-9 25-14 24-14 15-9 28-15 8-7 12-8 15-8 24-10 11-4 8 3 15 10 37 19 9 6 23 13 13 8 22 12 30 20 3 3-1 4-14 8-52 28-19 12-22 13-29 17-27 16-20 12-26 15-21 12-22 13-40 24-29 17-4 3-1 52-1 88 1 49 10 3 2 2-8-1-1-1h-14l-15 8-28 17-25 15-14 9-22 13-21 12-21 10-3 1h-10l-13-5-7-4 1-2 16 7 6 1v-68l1-70v-34l-2-9-7-6-17-10-27-16-18-10-23-13-19-12-26-15-16-10-22-13-25-14-24-14-17-9-23-13-30-18-19-11-21-12-18-10-23-13-24-14-29-17-17-10-24-12-9-5-1-4-8 2 1 13-1 154h-2v-172l5-5 21-13 25-14 24-14 26-15 21-12 15-9 26-15 25-14 17-10 29-17 41-24 18-10 29-16 26-15 15-9 26-15 18-11 20-12 19-11 18-10 20-12z" fill="#00B1E2"/>
<path transform="translate(1185,244)" d="m0 0 7 3 23 13 15 9 28 16 24 14 29 17 19 11 23 13 29 17 52 30 19 11 29 17 20 12 29 17 23 13 24 13 14 8 5 4v2l18 11v2l4 2 5 5 8 6v2l5 2 5 5 6 7 7 9 2 3-1 9-6 5-19 7-27 11-26 13-5 2v2l-16 8-9 6-11 6-15 9-9 5-7 3-14 8-25 15h-3v2l-9 5-17 10-20 12-9 6-16 9-11 7-17 10-14 9-11 6-17 10-14 8-21 13-14 9-11 6-45 30-11 6-11 4-10-2-12-7-12-6-10-6-18-12-11-7-5-4-9-5v-2l-6-2-11-5-8-4-11-7-6-5-11-9-10-12-8 1 3-3 24-14 45-27 21-12 26-15 27-16 20-12 53-31 21-13 15-9 27-14 16-9 14-8-1-4-10-7-18-12-19-11-11-6-15-9-21-12-10-6-33-17-10-7-10-5-9 3-13 5-11 5-17 8-11 8-9 7-16 9-20 11-20 12-25 14-24 14-22 13-23 14-21 12h-2v2l-7 3-16 9-21 13-5 3h-2v2l-7 3-21 11-12 3-8-2-18-10-11-7-26-15-13-8-27-15-16-9-15-9-11-6-5-6-3-5 1-5 18-8 21-11 14-9 29-16 17-10 26-15 24-15 24-14 27-16 22-12 25-14 20-13 17-10 18-10 11-8 5-4 28-15 17-10 24-14 26-15 53-31z" fill="#015469"/>
<path transform="translate(1595,482)" d="m0 0 6 1 40 24 22 13 14 10 3 5v29l-1 156-10 6-20 11-23 13-25 14-39 23-9 7-1 2 23 12 44 26 16 9 22 13 16 10-2 1-5-2 1 2-8-1 1 10-3 7-4 5-8 6-14 8-17 9-12 6-15 7-11 6-14 7-4 3-11 6-10 6-12 5-17 9-30 15-13 7-13 9-11 7h-2v2l-19 11-2 2h-3v2l-17 9-17 10-19 11-18 11-17 10-18 10-16 8-22 12-10 6-14 8-11 7-7 4h-2v2l-14 8-18 9h-7l-10-3-10-5-11-3-5-3-20-9-11-7-14-9-24-14-26-16-7-5-3-1v-2l-5-1-8-5-7-3 1 15v68l1 81 1 18 9 11 18 11 15 10 3 3-6-2-22-13-21-13-3-5v-69l1-82 1-34 1-2 11-6 24-13 19-11 22-13 17-10 32-16 1-4-41-24-21-12-5-3-8-6-12-6-15-9-16-8-10-4-1-9-1-41 1-87 1-52 10-7 8-3 5 1 12 14 8 6 10 8 12 7 12 5 8 4v2l6 2 8 6 11 7 24 16 12 6 18 10 8 1 14-5 19-12 10-7 12-8 17-11 12-7 13-8 23-14 19-11 13-8 8-4 14-9 16-9 10-7 17-9 5-4 22-13 11-7 9-5 4-1v-2l12-6 23-14 10-6 7-3 11-6 18-11 9-5 8-5 8-4h3v-2l11-6 17-9 20-8 18-7 13-5 3-3 1-9-9-12-7-8-1-3-5-2-2-1v-2l-5-2-6-6v-2l-6-3v-2l-5-2-14-9z" fill="#023F4C"/>
<path transform="translate(1670,1204)" d="m0 0 5 1 4 4 1 3v181l-4 6-10 7-22 13-23 13-25 14-27 16-23 13-28 16-23 14-25 15-21 12-29 16-24 14-18 10-25 15-24 14-20 12-21 12-27 15-22 13-21 12-19 11-12 6-5-2-17-11-16-8-14-8-17-10-16-9-23-13-19-12-29-16-4-2v-191l2-1 5 4 13 4 16 11 13 8 19 9 28 14 22 12 13 8 12 7 12 6 11 2 12-4 20-11 22-12 16-9 11-6 16-8 9-6 16-8 13-8 14-9 5-3h3v-2l12-7 16-10 16-9 13-8 14-8 13-8 22-14 18-11 7-4h2v-2l28-16 12-7 8-4 19-10 23-13 23-11h3l1-2 11-5 25-11 14-7h3v-2l5-3 4-2v-2l3-3h2l2-4 3-5-1-3-2-2z" fill="#023F4C"/>
<path transform="translate(496,1134)" d="m0 0 3 1v2l8 1 23 13 17 10 24 13 22 13 45 27 27 15 23 13 20 12 21 12 20 12 17 10 21 12 26 15 18 11 3 3 16 10 10 3v-2h2l2-4 19-12 39-19 23-11 26-14 20-11 19-11 5-2 8 1 31 14 10 6 23 11 10 6 11 6 15 9 16 10 3 3v5l-5 4-16 10-16 8-27 14-20 11-22 12-11 7-12 10-13 9-26 14-19 10-23 11-12 7-11 6-14 9-11 7-23 13-6-1-10-5-13-8-11-7-7-4-27-15-10-6-16-8-21-12-11-5v-2l-9-2-54-32-26-15-26-16-15-9-26-15-32-17-26-14-17-10-11-6-22-13-28-16-24-14-15-9-20-11-7-5-1-6 21-11 27-16 17-10 20-12 24-13 18-7z" fill="#00B1E2"/>
<path transform="translate(374,534)" d="m0 0 3 1 1 3 9 5 26 13 27 16 26 15 19 11 23 13 25 14 19 11 22 13 20 12 25 14 23 13 18 10 23 13 22 13 21 13 24 14 21 13 24 13 39 23 18 11 6 7 1 7v38l-1 69v62l-1 3-3 1-15-6-16-8v-2l-9-3v-2l-5-1v-2l-10-4v-2l-6-2-17-10-43-24-16-9-3-1v-2l-6-2-35-21-18-10-30-18-3-1-3-3-17-10-25-15-46-26-19-11-14-8-11-6-28-16-13-8-26-15-43-25-8-4-2-2v-15h2v-167z" fill="#015469"/>
<path transform="translate(369,1207)" d="m0 0 2 1 1 4 13 8 17 9 16 10 23 13 48 28 23 13 29 16 23 12 23 13 19 11 26 16 58 34 15 9 17 10 22 13 24 14 23 14 20 12 27 16 14 9 7 6v106l2 51 1 19-5 3-1 3-5-1-14-9-28-16-15-9-22-13-24-14-14-8-16-9-22-13-42-24-29-17-28-16-24-14-20-12-45-26-17-10-42-24-25-14-16-9-26-15-11-7-4-6v-28l1-113v-45z" fill="#015469"/>
<path transform="translate(371,876)" d="m0 0h5l19 10 17 9 16 9 21 12 26 16 23 14 18 11 29 17 25 14 26 14 17 10 27 15 28 17 16 9 21 13 25 14 22 13 25 15 18 10 21 12 18 12 15 8 5 3 1 2 1 9 2 53 1 43 1 24v55l-3 2-12-6-24-14-22-13-23-13-26-15-16-10-21-12-41-24-27-15-21-12-21-13-24-14-41-23-24-14-10-5-5-1-1-2-6-3-19-12-21-12-19-12-19-11-27-15-17-11-2-4v-144l1-34z" fill="#015469"/>
<path transform="translate(1550,1134)" d="m0 0 8 5 24 13 18 10 22 12 14 8 29 17 6 4v3l2 5-6 8h-2l-1 3h-2v2l-6 5h-3v2l-16 7-15 7-11 5-40 19-16 9-23 12-6 4-12 6-19 11-9 6h-3v2l-8 4-11 7-19 12-31 19-19 11-15 9-12 7-11 7-5 3h-2v2l-8 4-16 10-14 9-16 8-6 4-16 8-11 6-29 16-11 6-18 10-13 4-13-3-11-6-10-6-24-14-17-9-44-22-16-10-10-7-15-5-1-3h-3v188l-1 1h-5l-1-18 1-20v-39l1-31v-14l2-67 8-5 25-14 18-10 21-12 20-12 24-13 11-7 1-3-1-3h2l2 5 11 7 5 4 3 3v2h7l13-7 17-10 18-11 10-5 19-11 11-6 14-8 17-9 12-7 22-12 10-6 8-4 5-3 19-9 20-11 16-8 26-14 26-16 12-8 11-6 29-19 14-8 14-9z" fill="#015469"/>
<path transform="translate(1547,795)" d="m0 0 5 1 23 12 44 26 16 9 22 13 16 10-2 1-5-2 1 2-8-1 1 10-3 7-4 5-8 6-14 8-17 9-12 6-15 7-11 6-14 7-4 3-11 6-10 6-12 5-17 9-30 15-13 7-13 9-11 7h-2v2l-19 11-2 2h-3v2l-17 9-17 10-19 11-18 11-17 10-18 10-16 8-22 12-10 6-14 8-11 7-7 4h-2v2l-14 8-18 9h-7l-10-3-10-5-11-3-5-3-20-9-11-7-14-9-24-14-26-16-7-5-3-1v-2l-5-1-8-5-7-3 1 15v68l1 81 1 18 9 11 18 11 15 10 3 3-6-2-22-13-21-13-3-5v-69l1-82 1-34 1-2 11-6 24-13 19-11 22-13 17-10 32-16 1-4-3-3 6 2 5 4 2 6 16 8 9-1 16-9 30-15 20-11 10-5 10-6 11-6 26-15 20-12 11-6 18-10 14-8 14-7 12-8 6-3h3v-2l14-8 14-7 14-8 11-6 12-6 27-16 21-13 14-9z" fill="#015469"/>
<path transform="translate(493,943)" d="m0 0 6 1 24 12 11 4 15 8 14 7 8 5 3 1v2l5 2 13 8 12 8 7 4 9 6 9 5 19 11 28 18 16 9 18 10 10 6 10 7 25 15 14 7 15 9 16 8 20 9 5 4 14 8 16 5 7 3 7-1 6-3h2v-2l9-6 5-5 4-1v-2l21-13 20-10 19-10 20-10 22-12 20-10 28-16h4v-2l9-5 4 1-23 13-10 6h-3l-1 36-1 89v62l2 4 18 11 25 15 16 9 62 35 6 4 1 4-8 6-24 13-22 13-17 10-54 30-3 2-2 72v15l-1 25v40l-1 24v13h5v1l-8 2-16 8-46 26-26 15-29 17-32 18-7 4-2 2h-6l-1-2h2l1-4 4-2-3-72v-104l-9-7-21-13-26-15-21-13-15-9-24-14-17-10-1-2 5 1v2l5 1 19 10 15 9 16 8 16 9 21 12 26 16 10 5 6-1 23-13 10-7 20-12 22-12 19-9 19-10 26-14 16-12 10-8 13-8 21-11 10-6 16-8 19-10 16-8 11-7 7-5v-5l-8-6-15-9-18-11-12-6-19-10-26-13-20-9-8-1-16 8-19 11-28 15-19 10-52 25-18 12-1 2h-2v2l-7-1-11-6-11-7 2-1 21 12 4 1 1-1v-55l-1-24-2-76-1-20-1-9-2-3-16-8-14-9-10-6-26-15-21-12-15-9-24-14-28-16-21-13-29-17-21-12-25-14-14-8-47-26-45-27z" fill="#008FB2"/>
<path transform="translate(1191,435)" d="m0 0 8 3 15 10 37 19 9 6 23 13 13 8 22 12 30 20 3 3-1 4-14 8-52 28-19 12-22 13-29 17-27 16-20 12-26 15-21 12-22 13-40 24-29 17-4 3-1 52-1 88 1 49 10 3 2 2-8-1-1-1h-14l-15 8-28 17-25 15-14 9-22 13-21 12-21 10-3 1h-10l-13-5-7-4 1-2 16 7 6 1v-68l1-70v-34l-2-9-7-6-17-10-27-16-18-10-23-13-19-12-26-15-12-8 3-1 2 1v2l6 1 6 5 11 4 16 8 14 8 9 6 15 9 12 7v2h3v2l5 1v2l5 1 15 10 15 9 13 6 7-1 9-5 11-7 16-12 13-8 14-8 26-15 13-8 11-6 40-20 12-5 21-12 16-11 4-2v-2l13-8 11-7 24-14 27-15 19-10 6-4 16-8 17-8 14-9h3v-2l12-6 8-3 6-5 23-13 14-9 10-6 15-8 14-10 9-6h2v-2h2l2-9-9-6-13-8-16-7-15-8-20-12-12-6-17-11-14-8-16-11-6-5v-2h-10l-23 11-3 2h-4l-1 3-23 13-5 3-6 1v2l-5 2h-4v2l-13 5-4 3-7 2-1 3-10 4-3 3-5 1v2l-9 3 3-3 22-13 18-10 16-9 11-9 13-8 13-6 15-7z" fill="#008FB2"/>
<path transform="translate(1032,721)" d="m0 0 5 3 3 5v2h2l4 6 9 7 21 11 17 9 19 9 14 8 23 13 11 6 10 6 10 5v2l4 1 1 3h2l2 3v37l1 26 1 33 1 16v12l2 32v12l-4 6-3 3-3 1h-8l-16-12-7-3-9-4-16-9-17-10-21-12-5-3-8-6-12-6-15-9-14-7-4-5-5-5-1-6-1-21v-156z" fill="#032A30"/>
<path transform="translate(1027,1060)" d="m0 0 7 2 5 5 10 8 14 8 24 13 18 11 24 15 22 13 14 9 13 10 6 5 5 6 1 8 1 70-1 52-1 22-2 12-2 5-7 4-13-9-10-5-1-3-6-1-10-6-27-15-21-12-15-9-3-3-34-22-9-11-1-18-1-81z" fill="#032A30"/>
<path transform="translate(1029,1402)" d="m0 0 24 16 16 8 27 14 19 11 44 27 13 9 11 8 2 3 2 11 1 21 1 11v42l-1 10-1 27v28l3 9 1 2v6l-4 2-1 11-2 2-7-3-15-10-16-8-11-6-17-10-16-9-23-13-19-12-29-16-1-5-2-97v-88z" fill="#032A30"/>
<path transform="translate(1013,338)" d="m0 0 5 1 3 2-7 6-13 8-22 12-20 13-17 10-22 12-23 13-20 12-27 16-21 13-45 26-27 15-19 12-22 11-10 4 1 5 6 9 18 10 10 6 8 5-2 1-7-3-14-7v-2l-7-2-6-3v-2l-7-2-13-7-3-3v-2l16-7 8-6 10-6 9-6 12-6 7-5 9-5 11-7 9-5 5-4 11-6 13-8 8-4 18-10 13-8 12-7 13-5 10-6 16-10 12-7 12-6 27-15 15-7 22-13 10-9 8-4 4-5z" fill="#009CC8"/>
<path transform="translate(1204,612)" d="m0 0 3 1-16 9-24 14-20 10-13 8-19 11-10 7-21 13-29 17-21 13-21 10-13 10-17 9-12 7-22 13-18 11-19 9-9 6-7 4-18 14-11 6-5 1-12-6-5-3-6-2-48-28-27-15-19-12-26-15-12-8 3-1 2 1v2l6 1 6 5 11 4 16 8 14 8 9 6 15 9 12 7v2h3v2l5 1v2l5 1 15 10 15 9 13 6 7-1 9-5 11-7 16-12 13-8 14-8 26-15 13-8 11-6 40-20 12-5 21-12 16-11 4-2v-2l13-8 11-7 24-14 27-15 19-10 6-4 16-8 17-8z" fill="#009BC7"/>
<path transform="translate(493,943)" d="m0 0 6 1 24 12 11 4 15 8 14 7 8 5 3 1v2l5 2 13 8 12 8 7 4 9 6 9 5 19 11 28 18 16 9 18 10 10 6 10 7 25 15 14 7 15 9 16 8 20 9 5 4 14 8 16 5 7 3 7-1 6-3h2v-2l9-6 5-5 4-1v-2l21-13 20-10 19-10 20-10 22-12 6-3 2 1-10 6-14 8-12 6-8 5-7 3-11 6h-2v2l-11 6-15 9-9 6-6 2v2l-9 6-13 10-9 5-2 1h-8l-8-7-14-4-11-7-10-6-18-8-23-13-19-11-8-3-15-9-28-16-28-17-29-17-21-12-25-14-14-8-47-26-45-27z" fill="#009BC7"/>
<path transform="translate(1100,1295)" d="m0 0 6 2 17 10 14 8 10 7 2 4-16 10-23 13-17 10-16 8-23 13-16 8-11 7-8 7h-2l-1 3-14 10-7 3-32 16-18 10-15 9-14 9-18 13-11 8-13 8-7 3h-7l-50-30-26-14-13-8-23-13 1-2 19 11 16 8 16 9 21 12 26 16 10 5 6-1 23-13 10-7 20-12 22-12 19-9 19-10 26-14 16-12 10-8 13-8 21-11 10-6 16-8 19-10 16-8 11-7 7-5v-5l-8-6-15-9-18-11z" fill="#009CC8"/>
<path transform="translate(1191,435)" d="m0 0 8 3 15 10 37 19 9 6 23 13 13 8 22 12 30 20 3 3-1 4-14 8-24 13h-2v-2l22-14 10-6 3-1-2-5-15-9-8-5-29-15-15-9-16-8-13-8-23-13-10-6-8-4-7-6v-2h-10l-23 11-3 2h-4l-1 3-23 13-5 3-6 1v2l-5 2h-4v2l-13 5-4 3-7 2-1 3-10 4-3 3-5 1v2l-9 3 3-3 22-13 18-10 16-9 11-9 13-8 13-6 15-7z" fill="#0080A5"/>
<path transform="translate(1148,1320)" d="m0 0 5 2 1 4-8 6-24 13-22 13-17 10-54 30-3 2-2 72v15l-1 25v40l-1 24v13h5v1l-8 2-16 8-12 7-4-1 5-5 16-10 2-3 2-15 3-14 1-16 1-40 1-29 1-42 3-30 5-6 23-12 14-8 23-13 4-2 5-5 11-6 14-8 8-3 19-11 3-2v-3z" fill="#0080A6"/>
<path transform="translate(1212,452)" d="m0 0 5 2 23 13 12 7 11 7 17 8 13 8 20 10 14 8 11 7 6 4 1 5-11 7-18 11-4 3h-2v3l-26 14-19 12-22 13-29 17-27 16-20 12-26 15-21 12-22 13-40 24-22 13h-2v-2l28-17 29-17 23-15 13-8 19-11 19-10 21-12 18-10 3-1 2-4 8-5h3v-2l12-6 8-3 6-5 23-13 14-9 10-6 15-8 14-10 9-6h2v-2h2l2-9-9-6-13-8-16-7-15-8-20-12-12-6-17-11-14-8-9-6z" fill="#0086AA"/>
<path transform="translate(374,1204)" d="m0 0h2l1 5 5 3 6 7 19 11v2l6 1 12 5 16 8 19 10 17 9v2l6 2 4 3 9 5 9 6 13 8 14 8 16 10 23 13 8 5v2l5 1 5 3v2l-5-2-30-16-44-24-18-10-25-15-25-14-17-10-22-13-16-9-10-6-6-4-1-6z" fill="#009BC7"/>
<path transform="translate(1013,338)" d="m0 0 5 1 3 2-7 6-13 8-22 12-20 13-17 10-22 12-23 13-20 12-27 16-21 13-45 26-27 15-19 12-22 11-5 2-3-1 19-10 16-9 17-11 9-5 10-6 11-6 11-7 16-8 14-8 15-9 18-11 24-14 21-13 25-13 24-14 5-3h2l1-3 22-13 10-9 8-4 4-5z" fill="#0088AC"/>
<path transform="translate(1024,1059)" d="m0 0h1v34l-1 89v62l2 4 18 11 25 15 9 5-2 1-25-13-19-10-14-8v-2h-2l-1-3 1-18 2-17 1-30 2-76 2-39z" fill="#0080A5"/>
<path transform="translate(1e3 1067)" d="m0 0 2 1-10 6-14 8-12 6-8 5-7 3-11 6h-2v2l-11 6-15 9-9 6-6 2v2l-9 6-13 10-9 5-2 1h-8l-8-7-14-4-11-7-10-6-18-8-23-13-22-13 2-1 14 7 15 9 16 8 20 9 5 4 14 8 16 5 7 3 7-1 6-3h2v-2l9-6 5-5 4-1v-2l21-13 20-10 19-10 20-10 22-12z" fill="#009CC8"/>
<path transform="translate(1417,379)" d="m0 0 5 1 29 17 26 15 25 15 29 17 18 10v3l-5-1-6-2-12-8-5-2-9-3-11-8-7-4-9-4-21-11-5-3v-2l-3-1v-2l-4-2-3-1v-2l-4-1-11-8-15-9z" fill="#024858"/>
<path transform="translate(842,805)" d="m0 0 5 1 8 5 6 6 1 18-1 54v28l1 47 2 11 4 6 2 6-1 7-5 4h-9l2-1v-68l1-70v-34l-2-9-7-6-7-4z" fill="#0080A5"/>
<path transform="translate(1204,612)" d="m0 0 3 1-16 9-24 14-20 10-13 8-19 11-10 7-21 13-29 17-21 13-9 4-2-1 9-6 18-10 16-11 4-2v-2l13-8 11-7 24-14 27-15 19-10 6-4 16-8 17-8z" fill="#009CC8"/>
<path transform="translate(1032,716)" d="m0 0 2 1-9 6-1 52-1 88 1 49 10 3 2 2-8-1-8-3-3-1-1-4v-11l3-50 2-73v-48l2-5z" fill="#0080A5"/>
<path transform="translate(851,1491)" d="m0 0 5 2 5 4 1 2 1 99 1 46 1 18-1 16-3 4h-6l-1-2h2l1-4 4-2-3-72v-104l-7-6z" fill="#0080A5"/>
<path transform="translate(1191,435)" d="m0 0 5 2 1 4h-8l-23 11-3 2h-4l-1 3-23 13-5 3-6 1v2l-5 2h-4v2l-13 5-4 3-7 2-1 3-10 4-3 3-5 1v2l-9 3 3-3 22-13 18-10 16-9 11-9 13-8 13-6 15-7z" fill="#0082A7"/>
<path transform="translate(809,1126)" d="m0 0 6 2 11 6 6 5 12 6 7 3 5 5 3 12 1 21 1 64 1 41v41l-2 10-7-1-11-6-11-7 2-1 21 12 4 1 1-1v-55l-1-24-2-76-1-20-1-9-2-3-16-8-14-9-10-6z" fill="#0081A6"/>
<path transform="translate(707,725)" d="m0 0 5 1v2l6 1 6 5 11 4 16 8 14 8 9 6 15 9 12 7v2h3v2l5 1v2l5 1 15 10 8 5-2 1-10-4-25-15-22-12-17-10-18-11-27-16-9-6z" fill="#009CC8"/>
<path transform="translate(1243,278)" d="m0 0 4 1 18 10 46 27 38 22v3l-13-6-8-5-12-6-6-4-9-2-7-3-6-4-14-9-12-8-11-8-5-3v-2l-3-1z" fill="#024859"/>
<path transform="translate(503,949)" d="m0 0 6 2 14 8 11 5 16 8 16 9 15 9 11 6 22 14 20 12 24 14 20 12 1 2-5-2-16-9-15-9-25-14-24-14-26-14-27-15-25-15-13-8z" fill="#0089AD"/>
<path transform="translate(412,1235)" d="m0 0 6 2 16 9 16 8 17 9 14 8 10 7 14 8 17 10 15 9 30 16 12 6v2l5 1 5 3v2l-5-2-30-16-44-24-18-10-25-15-25-14-17-10-13-8z" fill="#0089AD"/>
<path transform="translate(1036,715)" d="m0 0 2 1-5 4-7 4v156l1 21 2 8 4 3v2l3 1-2 1-10-4-1-9-1-41 1-87 1-52 10-7z" fill="#025469"/>
<path transform="translate(1098,952)" d="m0 0 11 6 18 10 15 9 11 7-1 4-10 6-30 15-27 16-19 11-4 1 1-3 9-4 8-5 3-3 11-6 22-13 14-8 11-7 2-4-1-3-4-2-14-9-11-7-15-9z" fill="#008EB5"/>
<path transform="translate(1212,452)" d="m0 0 5 2 23 13 12 7 11 7 17 8 13 8 20 10 14 8 11 7 6 4 1 5-11 7-18 11-4 3h-2v2l-4-1 25-17h2v-2h2l2-9-9-6-13-8-16-7-15-8-20-12-12-6-17-11-14-8-9-6z" fill="#009CC8"/>
<path transform="translate(650,1222)" d="m0 0 6 2 18 10 24 14 17 10 26 15 18 11 49 28 15 9 8 5-2 1-49-28-24-13-12-7v-2l-6-1-13-8v-2l-5-1v-2l-5-1-22-13v-2l-5-1-10-6v-2l-5-1v-2l-5-1-18-11z" fill="#008CB3"/>
<path transform="translate(1676,1395)" d="m0 0 1 3-9 7-24 14-14 8-4-1 2-2 1-4 4-1v-2l9-6 3-3 7-4h3v-2l9-3 11-3z" fill="#03323B"/>
<path transform="translate(1013,1254)" d="m0 0h8l12 5 16 8 23 12 16 8 12 7-3 1-14-8-25-12-6-4-23-10-9-4-7 1-14 7-19 11-41 22-2-1 10-6 23-12 30-18 11-6z" fill="#009CC8"/>
<path transform="translate(1673,867)" d="m0 0 4 2 3 3v179h-1l-1-32-1-92-1-56z" fill="#0084AA"/>
<path transform="translate(724,1415)" d="m0 0 5 1v2l5 1 13 7 1 3 5 2 27 15 10 6 24 13 11 7 17 10 9 9-5-2-28-17-21-12-24-15-26-15-22-13z" fill="#0088AC"/>
<path transform="translate(1304,554)" d="m0 0h6l-5 4-21 11-19 12-22 13-29 17-7 1 4-4 6-4h3v-2l12-6 8-3 6-5 23-13 14-9 10-6z" fill="#008EB4"/>
<path transform="translate(675,1045)" d="m0 0 11 6 19 10 13 8 11 7 9 6 15 9 1 3-6-2-15-9-28-16-26-16-4-4z" fill="#009BC6"/>
<path transform="translate(372,527)" d="m0 0 3 1 4 5 1 4 5 3v2l2 1-4-1-6-4v-3l-8 2 1 13-1 154h-2v-172z" fill="#0085AB"/>
<path transform="translate(1203,445)" d="m0 0 5 2 23 13 17 9 13 8 16 8 15 9 19 10 13 8-2 1-33-17-13-8-16-8-13-8-23-13-10-6-8-4z" fill="#008FB2"/>
<path transform="translate(1026,1059)" d="m0 0 5 1 1 2-5-2 1 15v68l1 81 1 18 7 8h-3l-5-5-2-7-1-51z" fill="#033F4C"/>
<path transform="translate(707,725)" d="m0 0 5 1v2l6 1 6 5 24 13 34 21 16 9 22 13 11 7-2 1-26-15-16-9-23-13-19-12-26-15-12-8z" fill="#0088AC"/>
<path transform="translate(1013,338)" d="m0 0 5 1 3 2-7 6-13 8-22 12-8 5-6 1 4-4 19-11 10-9 8-4 4-5z" fill="#0088AC"/>
<path transform="translate(512,1142)" d="m0 0 6 2 22 13 27 15 26 15 40 24-3 1-20-11v-2l-5-1-14-9-22-13-27-15-25-14z" fill="#008CB2"/>
<path transform="translate(1207,612)" d="m0 0 4 1-21 12-16 10-7 4-6 2-11 6-19 11-15 9-2-1 6-5 26-15 19-10 21-12 18-10z" fill="#008FB2"/>
<path transform="translate(1027,1492)" d="m0 0h2l2 100-4-1z" fill="#02404E"/>
<path transform="translate(542,630)" d="m0 0 5 1v2l9 3 4 2 1 2 7 3 24 14 15 9v2l5 1 27 15v2l-6-2-18-10-23-13-30-18-19-11z" fill="#0090B8"/>
<path transform="translate(984,1605)" d="m0 0 5 2-5 4-27 15-15 9h-5l2-4 5-2h3l2-4 15-8 6-1 2-4 7-6z" fill="#0088AF"/>
<path transform="translate(1112,288)" d="m0 0h2v2l-17 11-3 4-9 4-3 5h-3v2l-5 2h-7l-4 1 2-4 16-9 24-14z" fill="#024352"/>
<path transform="translate(1083,1283)" d="m0 0 5 2 20 11 39 22 5 5-1 4-24 14-4 1 3-3 22-13-3-5-14-8-13-8-23-13-11-6z" fill="#0087AB"/>
<path transform="translate(704,523)" d="m0 0 2 1 1 5 6 9 18 10 10 6 8 5-2 1-7-3-14-7v-2l-7-2-6-3v-2l-4-1v-2l-5-2-6-7 3-5z" fill="#0082A7"/>
<path transform="translate(730,1270)" d="m0 0 9 2 20 12 49 28 15 9 8 5-2 1-49-28-24-13-12-7v-2l-6-1-8-5z" fill="#008CB2"/>
<path transform="translate(1585,1106)" d="m0 0h8l-1 3-24 14-6 4h-5l4-7 5-3 8-1v-2l6-5z" fill="#033742"/>
<path transform="translate(1343,525)" d="m0 0 5 1 3 3-1 4-14 8-24 13h-2v-2l22-14 10-6 3-1z" fill="#0080A5"/>
<path transform="translate(1045,515)" d="m0 0h2v2l-5 1v2l-5 1-1 3-6 1-1 3h-4v2l-5 1v2l-5 1v2l-7 2v2l-7 2v2l-5 1v2l-5 1v2l-5 1v2l-11 7-4-1 19-12 24-14 15-9z" fill="#008BB1"/>
<path transform="translate(1098,952)" d="m0 0 11 6 18 10 11 7 5 5 5 4v3l-10 6-9 5-2-1 11-7 5-4-1-5-4-2-14-9-11-7-15-9z" fill="#009CC8"/>
<path transform="translate(374,1204)" d="m0 0h2l1 5 5 3 6 7 19 11v2l3 1-2 1-17-10-13-7-7-5-1-6z" fill="#0099C4"/>
<path transform="translate(771,487)" d="m0 0 2 1-24 14-13 8-25 12-3-1 19-10 16-9 9-6 10-4z" fill="#0088AC"/>
<path transform="translate(724,1415)" d="m0 0 5 1v2l5 1 13 7 1 3 5 2 27 15 10 6 6 4v2l-5-2-25-15-24-14-17-10z" fill="#0087AB"/>
<path transform="translate(1148,1320)" d="m0 0 5 2 1 4-8 6-24 13-22 13-8 2 4-4 11-6 14-8 8-3 19-11 3-2v-3z" fill="#0084A8"/>
<path transform="translate(1569,807)" d="m0 0 6 1 22 13 12 7-1 2h-3v-2l-5-1-10-6-14-7-7-6z" fill="#024D60"/>
<path transform="translate(1013,338)" d="m0 0 5 1 3 2h-5v2l-10 7-11 6-8 5-2-1 9-7 7-6 5-2 4-5z" fill="#009CC9"/>
<path transform="translate(1629,842)" d="m0 0 6 1 22 13 5 3 1 4-9-3-3-3-3-1v-2l-5-2-8-4v-2l-5-2z" fill="#025063"/>
<path transform="translate(1138,976)" d="m0 0 6 2 9 6-1 4-10 6-16 8-2-1 5-2v-2l16-9 3-1-3-5-7-5z" fill="#0085A9"/>
<path transform="translate(1207,612)" d="m0 0 4 1-21 12-16 10-7 4-2-1 7-6 14-8 18-10z" fill="#0088AC"/>
<path transform="translate(370,931)" d="m0 0h2l1 4v30l-2 8h-1z" fill="#033F4C"/>
<path transform="translate(1663,1064)" d="m0 0m-3 0 3 1v3l-14 8h-4l-1-4 4-4z" fill="#03323B"/>
<path transform="translate(704,521)" d="m0 0h4v2l-8 3-1 3 5 6 5 3v2l-5-2-11-6-3-3v-2z" fill="#0093B9"/>
<path transform="translate(1111,479)" d="m0 0 4 1-13 5-4 3-7 2-1 3-10 4-3 3-5 1v2l-9 3 3-3 22-13 14-8z" fill="#008AB0"/>
<path transform="translate(707,725)" d="m0 0 5 1v2l6 1 6 5 24 13 2 4-5-2-26-15-12-8z" fill="#0087AB"/>
<path transform="translate(432,567)" d="m0 0 6 1 18 11v2l5 1 9 5v2l3 1-2 1-26-15-13-8z" fill="#0092BA"/>
<path transform="translate(754,1094)" d="m0 0 5 2 20 11 16 9 9 5v2l-6-2-21-12-22-13z" fill="#0088AC"/>
<path transform="translate(1461,1518)" d="m0 0h8l-2 4-12 7h-3l1-4 3-5z" fill="#033843"/>
<path transform="translate(1139,1315)" d="m0 0 5 1 8 7-1 4-24 14-4 1 3-3 22-13-3-5-6-4z" fill="#008DB0"/>
<path transform="translate(684,1053)" d="m0 0 6 2 14 8 26 16-2 1-25-14-19-12z" fill="#0088AC"/>
<path transform="translate(1232,596)" d="m0 0 2 1-4 3h-2v3l-16 9h-5l4-4 6-4h3v-2z" fill="#0090B7"/>
<path transform="translate(706,1254)" d="m0 0 6 2 25 15-2 1-9-3-1-3-5-1v-2l-5-1-7-4z" fill="#0089AF"/>
<path transform="translate(1058,1037)" d="m0 0 4 1-23 13-7 4-6 1 3-3 16-9h4v-2z" fill="#0090B7"/>
<path transform="translate(1098,952)" d="m0 0 11 6 18 10 11 7-2 1-5-3-7-3-11-7-15-9z" fill="#008FB6"/>
<path transform="translate(548,1312)" d="m0 0 6 2 16 9 7 3 2 1v2l5 1 5 3v2l-5-2-30-16-6-4z" fill="#0088AC"/>
<path transform="translate(496,794)" d="m0 0 5 2 22 12 12 7-3 1-33-18-3-2z" fill="#008CB3"/>
<path transform="translate(1671,871)" d="m0 0h6v46h-1l-1-36-2-5-2-2z" fill="#025469"/>
<path transform="translate(800,589)" d="m0 0 5 2 11 6 15 9 1 2-7-2-4-2-3-3-10-5-8-5z" fill="#008BB1"/>
<path transform="translate(1343,525)" d="m0 0 4 2 2 4-9 6-15 8-2-1 11-7 9-6h2z" fill="#008FB2"/>
<path transform="translate(601,1193)" d="m0 0 5 2 27 16-3 1-20-11v-2l-5-1-4-4z" fill="#008BB1"/>
<path transform="translate(1633,1077)" d="m0 0h6l3 3-11 6h-3v-5z" fill="#03353F"/>
<path transform="translate(372,527)" d="m0 0 3 1 4 5 1 4 5 3v2l2 1-4-1-6-4v-5h-8l-2 2 1-5z" fill="#0097C1"/>
<path transform="translate(732,1079)" d="m0 0 11 6 10 6 1 3-6-2-15-9-3-3z" fill="#0091B9"/>
<path transform="translate(1678,1019)" d="m0 0h1v36l-2 2-2-4v-7l2-4z" fill="#01576D"/>
<path transform="translate(997,543)" d="m0 0 4 1-5 1v2l-5 1v2l-5 1v2l-11 7-4-1 19-12z" fill="#008BB1"/>
<path transform="translate(1320,508)" d="m0 0 9 5 10 7 6 4-3 1-11-6-7-5-4-4z" fill="#0085A9"/>
<path transform="translate(771,572)" d="m0 0 6 2 17 10 6 4-3 1-6-4-12-6-8-5z" fill="#008CB3"/>
<path transform="translate(1190,438)" d="m0 0 6 1 1 2h-8l-19 9h-2l1-3 6-1v-2l8-4z" fill="#0097BF"/>
<path transform="translate(1115,1302)" d="m0 0 5 1 20 11-1 2-6-2-18-11z" fill="#0089AD"/>
<path transform="translate(370,867)" d="m0 0 2 1-1 2h-2v2h7l3 6-8-1h-2l-1 4-1-11z" fill="#0092BB"/>
<path transform="translate(771,487)" d="m0 0 2 1-24 14-6 4-2-1 6-4 5-5 10-4z" fill="#0082A6"/>
<path transform="translate(1155,455)" d="m0 0 4 1-15 9-7 4h-2l2-4 15-8z" fill="#0094BA"/>
<path transform="translate(412,1235)" d="m0 0 6 2 16 9 5 3v2l-5-2-21-12z" fill="#0088AC"/>
<path transform="translate(724,1415)" d="m0 0 5 1v2l5 1 13 7 1 2-6-1-17-10z" fill="#0091B9"/>
<path transform="translate(1676,618)" d="m0 0h1v28l-2-1-1-17z" fill="#042A30"/>
<path transform="translate(983,361)" d="m0 0h2v3l-14 8-6 1 4-4z" fill="#008FB6"/>
<path transform="translate(1652,1194)" d="m0 0 6 1 13 8-1 2-5-2-8-4v-2l-5-2z" fill="#025367"/>
<path transform="translate(1304,554)" d="m0 0h6l-5 4-10 5h-6l4-3z" fill="#008FB5"/>
<path transform="translate(754,306)" d="m0 0h2l-1 3-11 7-5 2-3-1 8-5z" fill="#009CC7"/>
<path transform="translate(1677,1375)" d="m0 0h1l1 20-2 2-2-3v-10z" fill="#01546A"/>
<path transform="translate(372,1205)" d="m0 0h3l2 7 2 4 4 2h-3l-9-6-1-6z" fill="#0087AB"/>
<path transform="translate(862,1673)" d="m0 0 2 1-1 6-2 2h-6l-1-2h2l1-4z" fill="#0086AC"/>
<path transform="translate(1652,515)" d="m0 0 6 2 11 7-1 3-9-5-7-5z" fill="#033D4A"/>
<path transform="translate(1052,703)" d="m0 0 4 1-20 12h-2v-2z" fill="#0087AB"/>
<path transform="translate(908,406)" d="m0 0 3 1-20 12-2-1 5-5 9-5z" fill="#0085A9"/>
<path transform="translate(923,397)" d="m0 0 2 1-3 3-9 5-6 2-4 1 4-4z" fill="#008AAD"/>
<path transform="translate(1020,529)" d="m0 0h2v2h-2v2l-5 1v2l-7 2v2l-9 3 3-3z" fill="#0089AE"/>
<path transform="translate(1112,288)" d="m0 0h2v2l-14 9h-5l3-3z" fill="#024B5D"/>
<path transform="translate(1181,627)" d="m0 0 2 1-4 4-12 7-2-1 7-6z" fill="#0086AA"/>
<path transform="translate(389,1220)" d="m0 0 11 6 7 4v2l3 1-2 1-17-10-2-1z" fill="#0090B8"/>
<path transform="translate(749,560)" d="m0 0 6 2 16 9-2 1-7-3-4-2v-2l-5-1-4-2z" fill="#008CB2"/>
<path transform="translate(726,549)" d="m0 0 5 1 8 3 10 6-2 1-7-3-14-7z" fill="#008CB2"/>
<path transform="translate(777,481)" d="m0 0m-1 1m-3 1h3v2l-20 11-2-1 9-6 6-3z" fill="#008FB2"/>
<path transform="translate(1081,1024)" d="m0 0 4 1-19 11-4 1 1-3 9-4z" fill="#008AAF"/>
<path transform="translate(1138,976)" d="m0 0 6 2 6 4 1 4-5 4-2-1 4-2-3-5-7-5z" fill="#008AAE"/>
<path transform="translate(542,630)" d="m0 0 5 1v2l9 3 4 2 4 5-5-2-16-9z" fill="#008DB3"/>
<path transform="translate(1036,917)" d="m0 0 5 1 18 10 1 2-6-2-18-9z" fill="#0090B8"/>
<path transform="translate(1594,821)" d="m0 0 5 1 10 6-1 2h-3v-2l-5-1-6-4z" fill="#025064"/>
<path transform="translate(369,532)" d="m0 0h6l2 1v2l-8 2v9h-1v-13z" fill="#0081A6"/>
<path transform="translate(1119,473)" d="m0 0m-2 1 7 1-2 2-13 4-5 1 4-3z" fill="#0087AC"/>
<path transform="translate(596,662)" d="m0 0 8 2 3 2v2l5 1 2 1v2l-6-2-12-7z" fill="#008FB6"/>
<path transform="translate(1244,590)" d="m0 0 3 2-16 9-3 1v-2z" fill="#0088AC"/>
<path transform="translate(1256,582)" d="m0 0 2 1-1 3-9 5-4-1 4-3z" fill="#0090B7"/>
<path transform="translate(572,1324)" d="m0 0 5 2 2 1v2l5 1 5 3v2l-5-2-12-7z" fill="#0090B8"/>
<path transform="translate(1325,540)" d="m0 0m-1 1m-2 1h2l-1 3-11 7h-2v2l-4-1z" fill="#009BC6"/>
<path transform="translate(512,1142)" d="m0 0 6 2 12 7-4 1-13-8z" fill="#008BB1"/>
<path transform="translate(454,580)" d="m0 0 9 3 7 4v2l3 1-2 1-17-10z" fill="#008EB5"/>
<path transform="translate(1203,445)" d="m0 0 5 2 12 7 1 2-5-2-10-5z" fill="#0092B7"/>
<path transform="translate(1321,545)" d="m0 0 2 1-5 5-6 3h-2v-2z" fill="#0087AB"/>
<path transform="translate(586,1185)" d="m0 0 5 1 10 6 1 3-5-2-11-7z" fill="#008EB6"/>
<path transform="translate(1125,998)" d="m0 0 4 1-4 2-3 3-8 1 5-4z" fill="#0092B8"/>
<path transform="translate(1553,798)" d="m0 0 5 1 9 5v1l-7-1-7-4z" fill="#025164"/>
<path transform="translate(563,641)" d="m0 0 5 2 10 6-2 1-7-3-5-3z" fill="#0094BD"/>
<path transform="translate(982,552)" d="m0 0 4 1-11 7-4-1z" fill="#008EB5"/>
<path transform="translate(1111,479)" d="m0 0 4 1-13 5-4 3-2-1 4-4z" fill="#0090B6"/>
<path transform="translate(942,1629)" d="m0 0h4l-1 4-3 2h-5l2-4z" fill="#0087AE"/>
<path transform="translate(800,589)" d="m0 0 5 2 8 4v3l-5-2-8-5z" fill="#0090B7"/>
<path transform="translate(730,1270)" d="m0 0 9 2 3 2v3l-5-2-7-4z" fill="#0090B7"/>
<path transform="translate(606,391)" d="m0 0h2l-1 3-9 5-3-1 8-5z" fill="#0096BF"/>
<path transform="translate(1155,455)" d="m0 0 4 1-11 7-2-1 4-4z" fill="#0095BD"/>
<path transform="translate(1150,983)" d="m0 0 3 1-1 4-8 5-2-1v-2l7-3z" fill="#0081A5"/>
<path transform="translate(588,656)" d="m0 0 6 2 6 4-2 1-8-3z" fill="#0094BD"/>
<path transform="translate(1364,348)" d="m0 0 4 1 7 4-1 2-5-2-5-3z" fill="#01566B"/>
<path transform="translate(742,1275)" d="m0 0 5 2 7 4v1h-5l-5-3v-2h-2z" fill="#0089AE"/>
<path transform="translate(831,798)" d="m0 0 10 3 1 4-5-2-6-4z" fill="#008CB2"/>
<path transform="translate(707,725)" d="m0 0 5 1v2l6 1 3 3-8-2-6-4z" fill="#0090B8"/>
<path transform="translate(1232,596)" d="m0 0 2 1-11 7h-3v-2z" fill="#009CC8"/>
</svg>
