<?xml version="1.0" encoding="UTF-8"?>
<svg version="1.1" viewBox="0 0 1024 1024" width="256" height="256" xmlns="http://www.w3.org/2000/svg">
<path transform="translate(121)" d="m0 0h781l10 9 3 6v839l-3 7-7 8-6 7h-2l-2 4h-2l-2 4h-2l-2 4-8 8h-2l-2 4h-2l-2 4h-2l-2 4h-2l-2 4h-2l-2 4h-2l-2 4h-2l-2 4-76 76h-2l-1 3-8 7-10 10-6 4h-374l-10-8-4-11-5-1h-45l-1 7-4 6-7 6-2 1h-12l-9-7-4-6-1-7h-49l-4 10-4 5-7 5h-84l-11-10-2-5v-995l5-8 6-4z" fill="#FDFDFD"/>
<path transform="translate(121)" d="m0 0h781l10 9 3 6v839l-3 7-7 8-6 7h-2l-2 4h-2l-2 4h-2l-2 4-8 8h-2l-2 4h-2l-2 4h-2l-2 4h-2l-2 4h-2l-2 4h-2l-2 4h-2l-2 4-76 76h-2l-1 3-8 7-10 10-6 4h-374l-10-8-4-11 2-9 4-6 8-6 286-1h62v-138l3-6 5-5 5-3 14-1 125-1 1-788h-725l-1 942 57 1 6 4 6 7 2 7-1 8-6 9-7 5h-84l-11-10-2-5v-995l5-8 6-4z" fill="#010000"/>
<path transform="translate(348,80)" d="m0 0h48l303 1 6 3 6 7 2 5v89l-2 6-7 8-5 2-20 1-90 1h-119l-130-1-15-1-6-3-7-8-1-2-1-31v-22l1-41 5-8 8-5z" fill="#010000"/>
<path transform="translate(280,742)" d="m0 0h19l11 3 9 4 11 7 9 10 7 12 4 13v22l-4 13-4 7 1 4 11 8 10 9 11 14 8 15 5 15 2 10 1 17-3 9-5 5-8 4h-170l-8-4-6-7-1-3v-19l3-14 6-16 8-14 8-10 12-12 12-8-7-16-2-9v-17l3-12 7-14 11-12 10-7 11-5z" fill="#010000"/>
<path transform="translate(282,500)" d="m0 0h16l15 4 11 6 10 9 7 8 7 15 2 7v22l-4 13-4 8v3l11 7 11 10 10 13 6 10 7 17 3 14 1 18-4 9-5 5-7 3h-170l-8-4-5-6-2-4v-19l3-14 6-16 6-11 10-13 11-11 13-9-7-16-2-9v-18l4-13 7-13 10-11 10-7 12-5z" fill="#010000"/>
<path transform="translate(283,258)" d="m0 0h15l15 4 11 6 10 8 8 11 6 13 2 7v22l-4 13-3 6-2 5 5 2 14 11 10 11 11 18 7 19 2 10 1 16-2 8-4 6-7 4-3 1h-171l-8-5-5-6-1-3v-19l3-14 6-16 8-14 9-11 9-9 14-10-7-16-2-9v-17l3-12 8-15 10-11 14-9 12-4z" fill="#010000"/>
<path transform="translate(351,121)" d="m0 0h321l1 1v38l-1 1h-321z" fill="#DCD4D2"/>
<path transform="translate(808,550)" d="m0 0h12l6 3 6 7 2 4v11l-3 6-9 10-68 68-10 6h-11l-8-4-46-46-4-6-2-7 1-7 4-8 9-6h12l8 4 29 29v2l4-1 61-61z" fill="#010000"/>
<path transform="translate(808,308)" d="m0 0h12l8 5 4 5 2 4v11l-3 6-9 10-69 69-9 5h-12l-9-6-46-46-3-6-1-7 2-8 5-7 7-4 6-1 9 2 9 7 9 9 7 8 7 6v2h2l1 2 3 1 2-4 58-58z" fill="#010000"/>
<path transform="translate(446,339)" d="m0 0h173l7 4 6 9 1 8-3 9-5 6-6 3-7 1h-163l-10-4-6-8-2-9 3-10 4-5z" fill="#010000"/>
<path transform="translate(448,661)" d="m0 0h168l8 3 7 8 2 9-2 9-4 6-7 4-3 1h-170l-8-4-5-6-2-4v-12l5-8 5-4z" fill="#010000"/>
<path transform="translate(449,419)" d="m0 0h126l7 2 5 4 4 6 1 3v10l-4 8-6 5-5 2h-131l-6-3-6-7-3-9 2-9 4-6 7-5z" fill="#010000"/>
<path transform="translate(462,822)" d="m0 0h43l74 1 5 3 7 8 1 3v11l-5 8-6 5-3 1-14 1-118-1-6-3-7-8-2-8 2-9 6-8 6-3z" fill="#010000"/>
<path transform="translate(447,903)" d="m0 0h89l7 3 5 5 4 8v8l-4 8-5 5-7 3h-90l-8-5-4-5-3-8 2-11 7-8z" fill="#010000"/>
<path transform="translate(445,581)" d="m0 0h93l6 3 6 7 2 6v7l-3 8-8 7-10 2h-78l-10-2-8-7-3-6-1-7 3-9 4-5z" fill="#010000"/>
<path transform="translate(791,870)" d="m0 0h55l-2 4-10 10h-2l-2 4-54 54h-2v2h-2l-2 4-7 6h-1l-1-82 1-1z" fill="#FCFCFC"/>
<path transform="translate(279,863)" d="m0 0h22l13 4 11 6 10 9 8 11 4 9-1 1h-113l3-8 8-11 9-9 13-8z" fill="#EDF6A4"/>
<path transform="translate(279,621)" d="m0 0h21l14 4 12 7 10 9 7 10 4 8-1 2h-113l2-6 7-11 11-11 14-8z" fill="#EDF6A4"/>
<path transform="translate(281,379)" d="m0 0h18l12 3 12 6 9 7 9 11 6 11v2h-114l7-14 9-10 10-8 13-6z" fill="#EDF6A4"/>
<path transform="translate(285,782)" d="m0 0h10l8 4 6 8 1 2v11l-4 8-6 5-9 3-9-2-6-4-5-7-1-3v-10l6-10 6-4z" fill="#EEF7A3"/>
<path transform="translate(286,298)" d="m0 0h7l8 3 5 5 3 4 1 3v11l-5 8-6 5-6 2-10-1-6-4-6-8-1-3v-9l4-8 7-6z" fill="#EEF7A3"/>
<path transform="translate(286,540)" d="m0 0h8l9 4 6 8 1 3v11l-5 8-5 4-4 2h-12l-6-3-6-7-2-5v-10l5-8 7-6z" fill="#EEF7A3"/>
<path transform="translate(284,984)" d="m0 0h12l8 5 4 5 3 9-2 8-4 6-7 6-2 1h-12l-9-7-4-6-2-8 4-10 5-6z" fill="#010000"/>
<path transform="translate(382,122)" d="m0 0h291v38l-7-1 4-2v-21l-2-7-2-5h-63l-1 2-38 1h-53l-61-1h-24l-3 1h-8l-4-1h-4-11l-14-3z" fill="#FEFEFE"/>
<path transform="translate(667,122)" d="m0 0h6v38l-7-1 4-2v-21l-2-7-2-5z" fill="#F3F0F0"/>
<path transform="translate(351,121)" d="m0 0h21l1 5-4 1-1-1-12 2-4-1-1-1z" fill="#E4DEDD"/>
<path transform="translate(354,123)" d="m0 0h10l4 1v2l-12 2-2-2z" fill="#FEFEFE"/>
</svg>
