<?xml version="1.0" encoding="UTF-8"?>
<svg version="1.1" viewBox="0 0 1724 2048" width="458" height="544" xmlns="http://www.w3.org/2000/svg">
<path transform="translate(0)" d="m0 0h1724v2048h-1724z" fill="#202527"/>
<path transform="translate(770,36)" d="m0 0h459l32 3 29 4 25 5 24 7 20 7 25 11 14 7 18 11 17 12 16 12 13 12 19 19 9 11 10 13 14 20 12 22 10 22 10 28 7 26 5 28 3 27 1 14v40l-3 27-6 36-10 40-12 36-12 29-15 32-13 23-14 23-10 15-12 17-10 13-9 11-22 26-11 12-12 13-14 14-8 7-12 11-11 9-13 11-20 15-15 11-26 17-13 8-23 13-32 17-30 13-30 11-28 9-44 11-33 6-34 3-29 1h-234l-2 11-24 89-15 57-8 29-8 30-18 67-19 70-8 30 49 1 4-17 22-83 17-63 17-64 20-74 9-32 1-2h97l-4 16-20 75-24 88-14 52-17 64-15 55-8 30-5 14-7 11-9 10-9 7-12 6-10 3-8 1h-680l4-2 20-6 20-8 21-11 21-14 17-13 15-14 9-9 9-11 13-16 15-23 13-24 12-27 10-28 13-46 22-83 19-71 12-44 10-38 15-56 21-79 14-51 3-11h435l-1 7-21 78-6 21h49l4-16 15-57 15-55 7-28h-519l-18 2-17 5-17 8-14 10-13 13-10 14-8 16-4 13-2 12v11l4 16 7 14 4 5 11 9 8 4 13 3-1 8-15 56-9 33-1 2-15-1-17-3-20-6-17-8-12-8-13-11-10-11-10-15-7-15-6-20-3-18v-29l3-20 7-26 5-13 8-16 7-13 12-18 9-11 18-20 13-12 20-15 19-12 19-10 27-11 23-6 22-3 48-1 14-1 9-35 16-59 10-38 20-74 18-67 15-56 11-33 13-27 11-18 8-11 10-13 9-10 7-8 10-11 8-7 8-8 11-9 16-12 21-13 29-15 19-8 23-7 36-7 7-1z" fill="#9FA840"/>
<path transform="translate(1049,133)" d="m0 0h121l37 1 26 2 23 4 24 6 28 10 22 10 18 11 19 14 15 13 13 12 10 11 11 15 9 14 10 18 9 21 7 21 6 25 4 29 1 12v34l-2 21-5 29-8 32-10 29-11 27-11 22-11 19-13 21-12 17-13 17-11 13-12 14-10 10-7 8-12 11-7 7-8 7-14 12-20 15-20 14-24 15-22 12-15 8-25 11-36 13-20 6-26 6-28 5-19 2-19 1h-76l-20-1 2-10 8-29 18-67 24-89 3-12 1-14-4-13-5-8-8-6-11-4-95-1-12-1 3-11 19-70 25-93 13-49 15-56 20-74 7-24 7-18 7-13 11-14 8-8 10-7 14-7 14-4 21-3z" fill="#202527"/>
<path transform="translate(632,1736)" d="m0 0h8l4 2 1 5v24h37l18 3 16 5 16 8 13 9 16 16 9 14 5 11 5 17 3 21-1 18-3 19-6 20-8 16-9 13-8 8-11 9-15 9-15 7-16 5-21 4-33 3-2 9-2 2h-9l-14-3-7-5-3-7-16-6-10-5-6-5-3-6 1-7 4-4 2-1h8l16 6 5 2 1-31 3-66 5-81-6 2-15 9-13 12-7 11-3 10-1 5v14l1 20-2 6-7 3h-8l-5-5-5-10-2-9 1-17 3-12 7-14 8-10 8-8 20-14 22-10 5-1 4-21 6-12 6-5z" fill="#FEFFFF"/>
<path transform="translate(326,1736)" d="m0 0 8 1 2 2 1 6v14h27l21 5 16 7 11 7 12 12 8 14 5 14 2 14v19l-2 14-5 13-7 12-9 10-9 8-15 9-15 6-22 5-24 3-2 29-3 20-5 16-6 8-5 4-2 1h-17l-6-4-3-3-1-3v-11l10-28 4-30v-5l-12-6-4-6-1-4 3-7 3-4h11l1-7 3-51 2-39 2-19-19 8-12 7-9 7-7 11-6 27-4 7-5 3h-11l-5-3-3-7v-13l3-12 6-12 9-11 11-9 19-11 14-6 17-5 7-1 3-10 5-9 8-6z" fill="#FEFFFF"/>
<path transform="translate(1018,1758)" d="m0 0 6 2 4 6 4 14 5 35 2 24 4 60 6 2-1 8-4 3v23l3 36 2 6 8-6 9-11 11-18 12-23 12-25 3-4h5l1 2v11l-7 20-16 33-12 20-9 11-8 8-12 6h-10l-16-3-6-4-2-7-1-7-1-20-1-43-41 3-21 1-5 12-12 38-6 18-4 6-6 4-7 2h-9l-7-3-3-4v-11l6-12 11-16 12-25 2-7h-13l-6-3-3-5v-11l5-6 4-1h26l11-24 16-33 14-26 16-27 8-11 9-10 7-6z" fill="#FEFFFF"/>
<path transform="translate(645,1784)" d="m0 0 17 1 20 4 12 5 12 7 11 9 10 11 9 14 7 15 4 17 1 9v19l-3 19-6 16-8 13-11 13-11 10-13 8-11 5-13 4-7 1h-27v-18l3-87 2-47 1-38z" fill="#212627"/>
<path transform="translate(1280,1758)" d="m0 0h16l14 2 14 5 10 7 6 9 2 5v14l-5 10-5 4-8 3-8-1-3-4v-16l-3-8-7-6-9-3h-14l-10 3-10 6-7 8-4 8-1 11 3 10 7 8 8 7 15 9 32 17 11 8 10 9 8 9 7 14 2 12v14l-2 13-5 13-8 12-8 8-13 9-16 8-11 4-16 3h-30l-14-2-17-5-13-7-8-7-6-10-3-10v-16l3-9 6-8 8-7 13-4h11l10 5 5 8v5l-4 3-13 4-3 3-1 7 4 11 9 10 8 5 13 4 6 1h12l13-3 12-6 10-9 8-13 3-11v-15l-4-11-6-8-4-5-15-11-18-10-20-11-15-10-12-11-7-11-4-12v-15l3-12 7-12 9-10 14-9 14-6 13-3z" fill="#FEFFFF"/>
<path transform="translate(337,1778)" d="m0 0 14 2 12 4 15 8 12 11 7 11 5 11 3 12v28l-5 15-6 9-9 10-11 7-15 5-12 2h-16l-1-1 2-76 4-54z" fill="#222727"/>
<path transform="translate(1e3 1798)" d="m0 0 2 1 3 29 1 18v55h-56l3-9 13-32 16-33 10-18 7-10z" fill="#232827"/>
</svg>
