<?xml version="1.0" encoding="UTF-8"?>
<svg version="1.1" viewBox="0 0 900 900" width="225" height="225" xmlns="http://www.w3.org/2000/svg">
<path transform="translate(0)" d="m0 0h900v900h-900z" fill="#FEFEFE"/>
<path transform="translate(250,600)" d="m0 0h24l22 2 22 4 25 7 20 8 16 8 14 8 18 12 7 5 5-2 30-10 20-4 17-2h33l23 3 24 6 18 7 16 8 14 8 14 10 12 9 6-2 17-6 18-4 9-1h37l19 3 20 6 25 12 15 10 13 11 5 4 7 8 8 9 10 14 8 13 2 8-1 34h-824v-66l8-15 12-18 10-13 13-15 17-17 11-9 13-10 19-12 19-10 21-8 21-6 20-4 15-2z" fill="#79909C"/>
<path transform="translate(490,636)" d="m0 0h33l23 3 24 6 18 7 16 8 14 8 14 10 12 9 6-2 17-6 18-4 9-1h37l19 3 20 6 25 12 15 10 13 11 5 4 7 8 8 9 10 14 8 13 2 8-1 34h-374l-1-62-1-8-10-16-10-14-10-13-11-12-7-8-9-9-8-7v-4l25-9 21-5z" fill="#56707C"/>
<path transform="translate(254,337)" d="m0 0h15l19 3 15 5 16 8 11 7 10 8v2l4 2 9 11 11 18 5 13 4 15 2 12v19l-3 17-5 15-8 16-8 12-11 12-10 9-15 9-14 6-13 4-13 2h-26l-16-3-17-6-15-8-13-10-12-12-9-13-8-16-5-13-3-13-1-9v-19l2-14 5-17 8-16 7-11 11-12 9-9 15-10 16-7 13-4z" fill="#FEA72F"/>
<path transform="translate(497,412)" d="m0 0h18l15 3 16 6 11 6 13 10 8 8 9 13 8 17 5 20v22l-4 18-5 12-8 14-9 11-10 9-14 9-15 6-18 4h-23l-20-5-16-8-11-7-14-14-9-14-7-16-4-17-1-7v-11l3-18 5-15 8-15 9-11 9-9 15-10 14-6 15-4z" fill="#FEA72F"/>
<path transform="translate(262,95)" d="m0 0 4 2 11 13 9 11 10 11 9 11 26 30 12 14 11 13 9 11 10 11-1 3h-72v75h-74l-1-1-1-73-74-1 3-5 5-5 9-10 9-11 9-10 9-11 7-9h2l2-4 9-10 9-11 2-3h2l2-4 10-11 9-11 10-11z" fill="#2095F8"/>
<path transform="translate(694,674)" d="m0 0h37l19 3 20 6 25 12 15 10 13 11 5 4 7 8 8 9 10 14 8 13 2 8-1 34-169-1v-49l-2-9-7-12-21-27-11-12-3-2v-2l-4-2-1-2 11-5 16-5 14-3z" fill="#485C67"/>
<path transform="translate(703,487)" d="m0 0h17l17 4 16 8 9 7 9 9 8 13 5 12 3 11 1 7v10l-3 15-5 13-7 11-10 12-13 9-11 5-10 3-7 1h-21l-15-4-16-8-13-12-8-10-8-17-3-13v-22l4-15 8-16 9-11 11-9 10-6 14-5z" fill="#FEA72F"/>
</svg>
