<?xml version="1.0" encoding="UTF-8"?>
<svg version="1.1" viewBox="0 0 1600 1708" width="400" height="427" xmlns="http://www.w3.org/2000/svg">
<path transform="translate(5)" d="m0 0h1595v1705h-1595l-1-1v-1703z" fill="#FCFCFC"/>
<path transform="translate(5)" d="m0 0h1595v1431l-8 7-17 16-10 8-13 10-8 9-10 7-11 8-9 8-8 7-7 6-14 11-5 4-5 7-10 8-13 11-14 11-9 8-11 9-13 11-10 8-14 12-10 8-13 11-10 8-14 12-12 9-10 9-11 8-16 13-11 7-2 1h-746l-10-7-9-7-8-16v-7l3-9 9-10 7-6 8-5 334-1h360v-230l4-8 6-7 9-6 13-3 12-1 78-1 172-1 8-1 1-858 1-451h-1444v420l-1 424-1 723 114 1 12 6 11 11 4 9v10l-3 11-11 12-9 6-5 2h-166l-5-3-12-9-4-2v-1688z" fill="#010000"/>
<path transform="translate(473,132)" d="m0 0h180l383 1 139 1 10 4 12 11 4 7v153l-3 7-7 8-7 6-11 4-15 1-62 1-122 1h-290l-174-1-70-1-12-2-9-4-8-6-9-8-1-3-1-11-1-30v-64l1-35 1-17 6-8 5-5 10-7 15-2z" fill="#010000"/>
<path transform="translate(336,1234)" d="m0 0h44l16 3 19 7 21 11 11 9 10 9 10 14 7 14 5 14v37l-8 22-6 9v7l1 3 5 2 18 11 16 13 8 7 7 7 7 8 8 11 10 17 6 14 5 16 3 15 1 10v15l-6 15-8 7-16 7h-341l-16-8-8-7-4-6-1-3v-31l4-18 13-31 4-6 6-8 6-9 18-20 10-8 14-11 18-10 4-3-13-24-3-11-1-7v-17l1-14 5-17 13-21 5-5 3-1 2-4 5-5 7-6 18-11 9-4 12-4 4-2z" fill="#010000"/>
<path transform="translate(344,428)" d="m0 0h32l28 6 18 8 11 6 10 7 8 7 10 12 8 13 8 16 2 5v40l-13 30-5 9 9 2 16 10 13 9 14 12 7 7 7 10 12 17 9 17 7 18 4 19 1 12v12l-4 13-8 10-11 5-8 3h-340l-16-8-8-6-4-6-1-3v-32l3-15 5-13 11-25 11-15 6-8 16-16 11-9 10-8 13-8 10-5-1-5-11-22-3-11-1-7v-18l2-16 4-13 14-23 7-7 8-7 12-9 17-9 16-6 17-4z" fill="#010000"/>
<path transform="translate(335,832)" d="m0 0h46l21 4 20 9 11 7 16 12 12 12 9 15 8 17 1 4v39l-10 24-6 10v3l16 9 10 6 11 9 10 8 6 6v2h2l9 11 11 15 10 19 6 16 4 18 2 17v13l-4 10-6 8-9 6-11 4h-340l-16-6-11-11-3-7v-31l4-17 6-15 9-20 9-13 7-8 8-10h2v-2h2l2-4 10-9 16-12 14-8 8-5-2-4-11-21-4-18v-17l1-14 6-18 6-10 6-9 6-7 8-7 11-10 18-10 15-6z" fill="#010000"/>
<path transform="translate(481,200)" d="m0 0h630l12 1 1 3-1 62-1 1h-641l-1-66z" fill="#DDD7D3"/>
<path transform="translate(1387,915)" d="m0 0h32l8 4 10 9 5 8v21l-6 10-8 8-11 9-15 13-11 9-13 11-11 9-26 22-11 9-13 11-11 9-13 11-11 8-17 9-8 1h-10l-10-2-12-6-10-8-14-12-14-11-10-9-11-9-13-11-14-11-10-10-6-12v-10l3-10 6-9 10-7 8-3h26l12 5 14 11 15 13 10 8 21 18 1 2 6-1 16-13 11-9 14-12 14-11 10-9 14-11 11-10 10-8 14-12 11-8z" fill="#010000"/>
<path transform="translate(1391,512)" d="m0 0h24l10 4 9 7 7 8 1 2v20l-5 10-11 11-14 11-10 9-22 18-14 12-10 8-14 12-11 9-13 11-11 9-14 12-10 8-17 9-3 1h-23l-12-6-12-9-9-8-11-9-14-12-10-8-13-11-11-9-13-11-7-6-5-13v-10l4-11 9-10 8-5 15-4 9 1 12 3 9 5 13 9 14 12 12 11 8 7 6 4 11 10 3-1 4-6 7-7 10-8 13-11 11-9 13-11 11-9 13-11 17-14 14-12 14-9z" fill="#010000"/>
<path transform="translate(675,563)" d="m0 0h331l11 1 12 6 10 12 3 8v11l-4 9-6 8-7 6-11 4-7 1-46 1h-275l-12-1-18-6-7-7-6-9-2-7v-10l5-12 6-7 6-4 8-3z" fill="#010000"/>
<path transform="translate(674,1099)" d="m0 0h333l14 3 9 6 8 9 4 10v10l-4 11-7 8-5 4-13 5-65 1h-253l-24-1-12-5-6-4-7-7-4-7v-19l4-7 8-9 10-6z" fill="#010000"/>
<path transform="translate(672,696)" d="m0 0h256l16 5 9 7 7 10 1 4v13l-3 9-5 7-11 8-13 4h-259l-12-5-11-11-6-12v-10l5-12 6-7 11-7z" fill="#010000"/>
<path transform="translate(694,1367)" d="m0 0h128l110 1 10 3 13 11 4 5 2 5v15l-2 6-7 9-7 6-10 5-18 2h-117l-99-1-32-1-14-7-9-9-5-10v-11l5-12 10-11 8-4 6-1z" fill="#010000"/>
<path transform="translate(667,966)" d="m0 0h188l9 4 8 7 6 7 3 9v9l-3 10-4 6-10 8-10 4-9 2-50 1h-98l-19-1-15-4-11-7-7-8-4-9-1-6 2-9 6-11 8-7 7-4z" fill="#010000"/>
<path transform="translate(668,1502)" d="m0 0h184l11 4 10 8 6 10 2 7v8l-3 8-6 9-9 7-12 5h-182l-16-9-7-8-5-10-1-6 4-14 8-10 8-6z" fill="#010000"/>
<path transform="translate(1354,1446)" d="m0 0h113l-2 4-10 10-14 11h-3l-2 4-12 11-11 9-13 11-11 9-14 12-11 9-13 11-11 9-15 12-9 7-10 9-4 2h-3l-1-41-1-93 2-4z" fill="#FCFBFB"/>
<path transform="translate(335,1435)" d="m0 0h48l16 4 15 5 19 10 13 10 7 6 9 11 6 9 4 7v4l-2 1h-225l2-5 6-11 10-11 13-13 14-10 23-11 16-5z" fill="#F1F9AA"/>
<path transform="translate(337,1032)" d="m0 0h38l19 3 14 4 19 9 11 7 11 9 5 5 9 10 8 12 1 8h-227l2-5 5-9 10-13 7-7 17-13 16-8 16-7z" fill="#F2F9A9"/>
<path transform="translate(341,629)" d="m0 0h34l26 5 23 10 12 7 10 8 14 14 10 15 3 7-1 1h-226l2-5 7-11 7-10 15-14 20-13 24-10z" fill="#F2F9A9"/>
<path transform="translate(348,1300)" d="m0 0h20l10 3 8 5 10 10 3 5 1 16-3 8-6 8-9 7-16 6h-13l-13-4-9-6-9-10-3-6v-16l7-11 7-8 8-5z" fill="#F2F9A9"/>
<path transform="translate(351,897)" d="m0 0h15l15 5 6 4 8 8 4 7 1 18-4 7-9 10-10 6-6 2h-25l-12-6-8-7-6-10-1-3v-14l6-10 4-5 11-8z" fill="#F2F9A9"/>
<path transform="translate(349,495)" d="m0 0h18l12 4 9 6 6 5 5 8 1 18-3 6-11 12-7 5-11 4h-14l-10-2-8-4-8-7-8-11-1-3v-13l6-12 7-7 9-6z" fill="#F2F9A9"/>
<path transform="translate(348,1636)" d="m0 0h22l10 4 10 7 6 7 4 10v8l-3 10-9 10-12 9-4 2h-24l-9-5-10-7-8-11-3-8 1-9 8-14 7-7 10-5z" fill="#010000"/>
<path transform="translate(561,201)" d="m0 0 391 1 36 1v3l-10 2-58 3h-103l-90-1-30-1-120-1-14-3-3-3z" fill="#FDFDFD"/>
<path transform="translate(191,1165)" d="m0 0h338v1l-8 1-89 1h-105l-107-1-29-1z" fill="#DDD7D2"/>
<path transform="translate(1084,201)" d="m0 0h39l1 3-1 62h-11l4-10 1-16-1-26-2-6-5-4-18-1-7-1z" fill="#FCFCFC"/>
<path transform="translate(480,201)" d="m0 0h40l1 6-2 2-5 1-32 1v-2l-2-1z" fill="#FCFCFC"/>
<path transform="translate(1580)" d="m0 0h20v15l-7-4-13-10z" fill="#FAF9F9"/>
<path transform="translate(5)" d="m0 0h32v1l-17 1-11 9-3 3h-2v-13z" fill="#F6F4F3"/>
<path transform="translate(1104,261)" d="m0 0 4 1 1 3-2 1h-13l4-2 2-2z" fill="#FCFCFB"/>
</svg>
